<svg id="Capa_1" enable-background="new 0 0 512.008 512.008" height="512" viewBox="0 0 512.008 512.008" width="512" xmlns="http://www.w3.org/2000/svg"><path d="m191.54 320.475-31.82-31.82-146.569 146.566c-17.534 17.534-17.534 46.069 0 63.647 17.538 17.509 46.113 17.534 63.633-.015l146.569-146.566z" fill="#ff7c48"/><path d="m76.783 498.854 146.569-146.566-31.813-31.813-178.388 178.394c17.537 17.508 46.113 17.534 63.632-.015z" fill="#ff415b"/><path d="m454.886 57.122c-76.225-76.225-199.671-76.1-275.771 0-76.225 76.223-76.1 199.671 0 275.771.002.002.004.002.005.004 76.223 76.218 199.667 76.093 275.766-.004 76.225-76.224 76.1-199.672 0-275.771z" fill="#596c76"/><path d="m454.886 332.894c76.225-76.225 76.1-199.673 0-275.771l-275.766 275.774c76.223 76.218 199.667 76.093 275.766-.003z" fill="#465a61"/><path d="m433.618 78.39c-64.537-64.537-168.739-64.497-233.236 0-64.537 64.536-64.497 168.739 0 233.236.002.002.004.002.005.004 64.536 64.53 168.735 64.49 233.231-.004 64.537-64.538 64.497-168.741 0-233.236z" fill="#fff5f5"/><path d="m433.618 311.626c64.537-64.537 64.497-168.741 0-233.236l-233.231 233.24c64.536 64.53 168.736 64.489 233.231-.004z" fill="#efe2dd"/><path d="m412.416 99.592c-24.444-24.445-58.194-39.584-95.416-39.584-74.443 0-135 60.557-135 135 0 37.224 15.141 70.975 39.587 95.42 24.445 24.443 58.193 39.58 95.413 39.58 74.443 0 135-60.557 135-135 0-37.222-15.139-70.972-39.584-95.416z" fill="#8cf2f2"/><path d="m452 195.008c0-37.222-15.139-70.972-39.584-95.416l-190.829 190.836c24.445 24.443 58.193 39.58 95.413 39.58 74.443 0 135-60.557 135-135z" fill="#57d9d4"/><path d="m391.209 120.799c-19.014-19.014-45.264-30.791-74.209-30.791-57.891 0-105 47.109-105 105 0 28.947 11.779 55.199 30.795 74.213 19.014 19.012 45.262 30.787 74.205 30.787 57.891 0 105-47.109 105-105 0-28.946-11.777-55.196-30.791-74.209z" fill="#57d9d4"/><path d="m422 195.008c0-28.945-11.777-55.195-30.791-74.209l-148.414 148.421c19.014 19.012 45.262 30.787 74.205 30.787 57.891.001 105-47.109 105-104.999z" fill="#26bfbf"/><path d="m437 180.008h-104.996-135.004c-8.291 0-15 6.709-15 15s6.709 15 15 15h105.005 134.995c8.291 0 15-6.709 15-15s-6.709-15-15-15z" fill="#8cf2f2"/><path d="m452 195.008c0-8.291-6.709-15-15-15h-104.996l-29.998 30h134.994c8.291 0 15-6.709 15-15z" fill="#57d9d4"/><path d="m371.996 140.016c-8.218-44.696-26.662-80.008-54.996-80.008-39.39 0-60 67.91-60 135 0 18.834 1.798 37.557 5.006 54.999 8.22 44.691 26.662 80.001 54.994 80.001 39.39 0 60-67.91 60-135 0-18.831-1.798-37.551-5.004-54.992zm-54.996 159.992c-7.385 0-23.721-26.755-28.533-76.461-.859-8.866-1.467-18.215-1.467-28.539 0-68.203 21.299-105 30-105 7.385 0 23.723 26.755 28.535 76.469.859 8.864 1.465 18.212 1.465 28.531 0 68.203-21.299 105-30 105z" fill="#8cf2f2"/><path d="m317 330.008c39.39 0 60-67.91 60-135 0-18.831-1.798-37.551-5.004-54.992l-26.461 26.461c.859 8.864 1.465 18.212 1.465 28.531 0 68.203-21.299 105-30 105-7.385 0-23.721-26.755-28.533-76.461l-26.461 26.461c8.22 44.69 26.662 80 54.994 80z" fill="#57d9d4"/></svg>