<svg id="Capa_1" enable-background="new 0 0 24 24" height="24" viewBox="0 0 505 505" width="24" 
    xmlns="http://www.w3.org/2000/svg">
    <path d="m267.5 471.236c-.004-7.803-1.432-51.748-31.989-83.126-20.21-20.753-48.194-31.276-83.176-31.276v29.996c26.483 0 47.182 7.416 61.523 22.041 21.667 22.095 23.496 55.771 23.642 62.365z" fill="#00cc76"/>
    <path d="m237.5 471.236c.004-7.803 1.432-51.748 31.989-83.126 20.21-20.753 48.194-31.276 83.176-31.276v29.996c-26.483 0-47.182 7.416-61.523 22.041-21.667 22.095-23.496 55.771-23.642 62.365z" fill="#4aa046"/>
    <path d="m248.041 272.001h133.917v29.999h-133.917z" fill="#00884f" transform="matrix(.933 -.359 .359 .933 -82.001 132.13)"/>
    <path d="m175 220.042h29.999v133.917h-29.999z" fill="#00aa63" transform="matrix(.359 -.933 .933 .359 -146.063 361.373)"/>
    <path d="m237.5 297.507h30v207.493h-30z" fill="#00aa63"/>
    <path d="m252.506 297.507h14.994v207.493h-14.994z" fill="#00884f"/>
    <path d="m327.211 168.959-5.44 74.135c-2.635 35.913-32.541 63.704-68.55 63.704-36.009 0-65.915-27.791-68.55-63.704l-6.879-74.428" fill="#00cc76"/>
    <path d="m252.5 191.241 156.007-31.743-11.25-37.011v-42.738l-38.788-21.369-22.394-37.011h-44.788l-38.787-21.369-38.787 21.369h-44.788l-22.394 37.011-38.788 21.369v42.738l-11.25 37.011z" fill="#ff1f3e"/>
    <path d="m252.494 168.813v137.968c.243.003.483.018.726.018 36.009 0 65.915-27.791 68.55-63.704l5.44-74.135z" fill="#4aa046"/>
    <path d="m213.712 21.369h-44.787l-22.394 37.011 105.969 132.861v-191.241z" fill="#c9001c"/>
    <path d="m336.075 21.369h-44.787l-38.788-21.369v191.241l105.969-132.861z" fill="#ff1f3e"/>
    <path d="m358.469 58.38-105.969 132.861.51-.103 155.497-31.64-11.25-37.011v-42.738z" fill="#c9001c"/>
</svg>